<svg data-v-f748f988="" width="855" height="224" viewBox="0 0 855 224" fill="none" xmlns="http://www.w3.org/2000/svg"><rect data-v-f748f988="" x="59.7886" y="106.862" width="10.2741" height="10.2752" fill="#001330"></rect> <rect data-v-f748f988="" x="80.3367" y="125.358" width="10.2741" height="10.2752" fill="#001330"></rect> <rect data-v-f748f988="" x="80.3367" y="164.404" width="10.2741" height="10.2752" fill="#001330"></rect> <rect data-v-f748f988="" x="59.7886" y="164.404" width="10.2741" height="10.2752" fill="#001330"></rect> <rect data-v-f748f988="" x="59.7886" y="145.908" width="10.2741" height="10.2752" fill="#001330"></rect> <rect data-v-f748f988="" width="10.2741" height="10.2752" transform="matrix(1 0 0 -1 135.817 141.798)" fill="#0674EC"></rect> <rect data-v-f748f988="" width="10.2741" height="10.2752" transform="matrix(1 0 0 -1 156.365 123.303)" fill="#0674EC"></rect> <rect data-v-f748f988="" width="10.2741" height="10.2752" transform="matrix(1 0 0 -1 156.365 84.2569)" fill="#0674EC"></rect> <rect data-v-f748f988="" width="10.2741" height="10.2752" transform="matrix(1 0 0 -1 135.817 84.2569)" fill="#0674EC"></rect> <rect data-v-f748f988="" width="10.2741" height="10.2752" transform="matrix(1 0 0 -1 135.817 102.752)" fill="#0674EC"></rect> <path data-v-f748f988="" d="M611.789 181.34H566.388V201.167H616.507V224H544.724V121.248H616.642V142.067H566.388V161.211H611.789V181.34Z" fill="#0674EC"></path> <path data-v-f748f988="" d="M477.806 184.965L499.577 121.248H528.285L488.816 224H466.797L427.6 121.248H456.103L477.806 184.965Z" fill="#0674EC"></path> <path data-v-f748f988="" d="M391.665 201.029H353.095L343.77 224H318.695L361.656 121.248H384.363L427.6 224H400.76L391.665 201.029ZM362.275 180.209H383.813L373.01 153.622L362.275 180.209Z" fill="#0674EC"></path> <path data-v-f748f988="" d="M234.447 207.224L249.028 191.497C289.646 221.547 300.061 184.157 271.941 184.157C254.235 184.157 238.613 172.624 238.613 151.654C238.613 130.684 257.36 121.248 276.107 121.248C291.104 121.248 305.268 132.431 310.475 138.023L294.853 153.751C261.526 126.49 253.194 161.09 271.941 161.09C300.061 161.09 310.475 178.915 310.475 192.545C310.475 206.175 302.144 224 276.107 224C257.36 224 238.96 213.165 234.447 207.224Z" fill="#0674EC"></path> <path data-v-f748f988="" d="M778.972 207.224L793.553 191.497C834.17 221.547 844.585 184.157 816.465 184.157C798.76 184.157 783.138 172.624 783.138 151.654C783.138 130.684 801.884 121.248 820.631 121.248C835.628 121.248 849.792 132.431 855 138.023L839.378 153.751C806.05 126.49 797.719 161.09 816.465 161.09C844.585 161.09 855 178.915 855 192.545C855 206.175 846.668 224 820.631 224C801.884 224 783.485 213.165 778.972 207.224Z" fill="#0674EC"></path> <path data-v-f748f988="" d="M720.039 224C712.807 224 706.567 223.06 701.317 221.18C696.067 219.206 691.708 216.526 688.242 213.142C684.874 209.664 682.348 205.575 680.664 200.875C679.079 196.081 678.286 190.816 678.286 185.082V121.248H701.466V179.102C701.466 183.05 701.911 186.434 702.803 189.254C703.793 191.98 705.081 194.236 706.666 196.022C708.35 197.715 710.331 198.937 712.609 199.689C714.987 200.441 717.562 200.817 720.336 200.817C725.982 200.817 730.538 199.172 734.005 195.881C737.571 192.591 739.354 186.998 739.354 179.102V121.248H762.534V185.082C762.534 190.816 761.692 196.081 760.008 200.875C758.324 205.669 755.748 209.805 752.281 213.283C748.814 216.667 744.406 219.3 739.057 221.18C733.708 223.06 727.369 224 720.039 224Z" fill="#0674EC"></path> <path data-v-f748f988="" d="M68.0079 44.5967C66.0035 64.317 98.83 98.0278 103.22 98.2847H46.685C46.1327 98.2847 45.685 98.7324 45.685 99.2847V223.643H16.9176C16.9176 223.643 16.4323 220.883 16.9176 220.56C18.9724 215.422 34.3835 214.395 34.3835 214.395V129.11C34.3835 129.11 19.9998 111.207 19.9998 98.2847C19.9998 77.7343 28.7304 73.3117 29.9939 58.982C30.7413 50.5049 27.5344 42.7983 26.1642 40.7435C23.082 36.1211 7.39095 30.0746 2.80831 26.1012C0.0093574 23.6744 -0.548302 15.0554 0.479109 13.0003C1.1289 11.7006 13.6099 11.0412 16.6376 10.393C24.8568 8.63335 23.8294 6.57831 26.9117 3.49574C32.0706 -1.66384 46.3857 0.413196 57.7338 0.413169C59.7886 0.413164 64.1783 0.670069 77.5345 17.1104C80.126 20.3003 78.5619 27.3857 73.4249 31.4957C68.3509 35.5554 68.8646 36.1669 68.0079 44.5967Z" fill="#0674EC"></path> <mask data-v-f748f988="" id="mask0" mask-type="alpha" maskUnits="userSpaceOnUse" x="0" y="0" width="104" height="224"><path data-v-f748f988="" d="M68.0079 44.5967C66.0035 64.317 98.83 98.0278 103.22 98.2847H46.685C46.1327 98.2847 45.685 98.7324 45.685 99.2847V223.643H16.9176C16.9176 223.643 16.4323 220.883 16.9176 220.56C18.9724 215.422 34.3835 214.395 34.3835 214.395V129.11C34.3835 129.11 19.9998 111.207 19.9998 98.2847C19.9998 77.7343 28.7304 73.3117 29.9939 58.982C30.7413 50.5049 27.5344 42.7983 26.1642 40.7435C23.082 36.1211 7.39095 30.0746 2.80831 26.1012C0.0093574 23.6744 -0.548302 15.0554 0.479109 13.0003C1.1289 11.7006 13.6099 11.0412 16.6376 10.393C24.8568 8.63335 23.8294 6.57831 26.9117 3.49574C32.0706 -1.66384 46.3857 0.413196 57.7338 0.413169C59.7886 0.413164 64.1783 0.670069 77.5345 17.1104C80.126 20.3003 78.5619 27.3857 73.4249 31.4957C68.3509 35.5554 68.8646 36.1669 68.0079 44.5967Z" fill="#0674EC"></path></mask> <g data-v-f748f988="" mask="url(#mask0)"><path data-v-f748f988="" d="M53.6242 10.2751H52.0646L51.6031 38.04C51.5846 39.1574 52.4853 40.0732 53.6029 40.0732H59.3839C59.6525 40.0732 59.9204 40.0375 60.179 39.9646C63.2039 39.1118 65.439 38.2133 70.0626 35.9632L72.1174 34.9356L74.1722 31.8531C70.0626 33.9081 64.0104 37.6523 58.7612 38.0182L54.5872 37.8638C54.0496 37.8439 53.6241 37.4024 53.6241 36.8645L53.6242 10.2751Z" fill="white"></path></g> <path data-v-f748f988="" d="M86.5011 198.312C83.4189 206.532 86.5011 222.972 91.6381 222.972C98.8299 222.972 92.6334 198.312 109.104 198.312C130.68 198.312 137.091 205.965 155.337 209.615C165.611 211.67 169.814 212.279 185.132 209.615C208.762 205.505 219.906 184.48 222.119 176.734C224.173 169.541 225.201 159.266 222.119 147.963C215.631 124.172 195.406 94.5321 185.132 94.5321V162.349C185.132 180.844 173.831 193.688 155.337 192.147C136.844 190.605 128.625 183.927 109.104 183.927C95.7477 183.927 89.5833 190.092 86.5011 198.312Z" fill="#001736"></path> <path data-v-f748f988="" d="M116.296 145.908V59.5963L181.022 59.5963C183.845 59.5963 187.187 53.4312 187.187 50.3486C187.187 47.266 184.105 43.156 181.022 41.1009C181.022 19.7285 162.529 13.0153 153.282 12.3303V0C119.378 0 101.912 27.7431 101.912 42.1284V78.0917C101.912 105.218 112.186 145.908 116.296 145.908Z" fill="#001736"></path></svg>